# AST/ASF file generated using VICON BodyLanguage
# -----------------------------------------------
:version 1.10
:name VICON
:units
  mass 1.0
  length 0.45
  angle deg
:documentation
   .ast/.asf automatically generated from VICON data using
   VICON BodyBuilder and BodyLanguage model FoxedUp or BRILLIANT.MOD
:root
   order TX TY TZ RX RY RZ
   axis XYZ
   position 0 0 0  
   orientation 0 0 0 
:bonedata
  begin
     id 1 
     name lhipjoint
     direction 0.700308 -0.549349 0.455834 
     length 2.59063 
     axis 0 0 0  XYZ
  end
  begin
     id 2 
     name lfemur
     direction 0.34202 -0.939693 0  
     length 6.31066  
     axis 0 0 20  XYZ
    dof rx ry rz
    limits (-160.0 20.0)
           (-70.0 70.0)
           (-60.0 70.0)
  end
  begin
     id 3 
     name ltibia
     direction 0.34202 -0.939693 0   
     length 7.36093   
     axis 0 0 20   XYZ
    dof rx
    limits (-10.0 170.0)
  end
  begin
     id 4 
     name lfoot
     direction 0.0905332 -0.248738 0.96433   
     length 2.0233   
     axis -90 7.62852e-016 20   XYZ
    dof rx rz
    limits (-45.0 90.0)
           (-70.0 20.0)
  end
  begin
     id 5 
     name ltoes
     direction 1.53573e-011 -4.21855e-011 1   
     length 1.01524   
     axis -90 7.62852e-016 20   XYZ
    dof rx
    limits (-90.0 20.0)
  end
  begin
     id 6 
     name rhipjoint
     direction -0.61416 -0.607328 0.503944   
     length 2.34332  
     axis 0 0 0  XYZ 
  end
  begin
     id 7 
     name rfemur
     direction -0.34202 -0.939693 0   
     length 6.58548   
     axis 0 0 -20   XYZ
    dof rx ry rz
    limits (-160.0 20.0)
           (-70.0 70.0)
           (-70.0 60.0)
  end
  begin
     id 8 
     name rtibia
     direction -0.34202 -0.939693 0   
     length 7.20707   
     axis 0 0 -20   XYZ
    dof rx
    limits (-10.0 170.0)
 end
 begin
     id 9 
     name rfoot
     direction -0.136772 -0.375778 0.916561   
     length 1.92184  
     axis -90 -7.62852e-016 -20   XYZ
    dof rx rz
    limits (-45.0 90.0)
           (-20.0 70.0)
  end
  begin
     id 10 
     name rtoes
     direction -1.53535e-011 -4.21828e-011 1   
     length 0.951089   
     axis -90 -7.62852e-016 -20   XYZ
    dof rx
    limits (-90.0 20.0)
  end
  begin
     id 11 
     name lowerback
     direction -0.0444974 0.988086 -0.147332   
     length 1.9609   
     axis 0 0 0   XYZ
    dof rx ry rz
    limits (-20.0 45.0)
           (-30.0 30.0)
           (-30.0 30.0)
  end
  begin
     id 12 
     name upperback
     direction 0.00613146 0.999513 0.0306081   
     length 1.94944   
     axis 0 0 0   XYZ
    dof rx ry rz
    limits (-20.0 45.0)
           (-30.0 30.0)
           (-30.0 30.0)
  end
  begin
     id 13 
     name thorax
     direction 0.0254621 0.994518 0.101418   
     length 2.0119   
     axis 0 0 0   XYZ
    dof rx ry rz
    limits (-20.0 45.0)
           (-30.0 30.0)
           (-30.0 30.0)
  end
  begin
     id 14 
     name lowerneck
     direction 0.0168698 0.977854 0.208608   
     length 1.6375   
     axis 0 0 0   XYZ
    dof rx ry rz
    limits (-20.0 45.0)
           (-30.0 30.0)
           (-30.0 30.0)
  end
  begin
     id 15 
     name upperneck
     direction -0.0283988 0.989338 -0.142843   
     length 1.6851   
     axis 0 0 0   XYZ
    dof rx ry rz
    limits (-20.0 45.0)
           (-30.0 30.0)
           (-30.0 30.0)
  end
  begin
     id 16
     name head
     direction -0.0129422 0.99741 -0.0707489  
     length 1.69029  
     axis 0 0 0   XYZ
    dof rx ry rz
    limits (-20.0 45.0)
           (-30.0 30.0)
           (-30.0 30.0)
  end
  begin
     id 17 
     name lclavicle
     direction 0.820295 0.564628 -0.0911715  
     length 3.16484  
     axis 0 0 0   XYZ
    dof ry rz
    limits (-20.0 10.0)
           (0.0 20.0)
  end
  begin
     id 18 
     name lhumerus
     direction 1 -4.48969e-011 1.00186e-027   
     length 5.17853   
     axis 180 -30 -90   XYZ
    dof rx ry rz
    limits (-60.0 90.0)
           (-90.0 90.0)
           (-90.0 90.0)
  end
  begin
     id 19
     name lradius
     direction 1 -4.48966e-011 -1.52922e-027   
     length 3.40399   
     axis 180 -30 -90   XYZ
    dof rx
    limits (-10.0 170.0)
  end
  begin
     id 20
     name lwrist
     direction 1 -4.48981e-011 -3.80893e-027   
     length 1.70199   
     axis 1.1049e-015 90 90   XYZ
    dof ry
    limits (-180.0 0.0)
 end
  begin
     id 21 
     name lhand
     direction 1 -4.48957e-011 -7.61786e-027   
     length 0.708964   
     axis 4.86085e-015 90 90   XYZ
    dof rx rz
    limits (-90.0 90.0)
           (-45.0 45.0)
  end
  begin
     id 22 
     name lfingers
     direction 1 -4.48929e-011 -1.52357e-026   
     length 0.571585   
     axis 9.7217e-015 90 90   XYZ
    dof rx
    limits (0.0 90.0)
  end
  begin
     id 23
     name lthumb
     direction 0.707107 -6.34905e-011 0.707107   
     length 0.820685   
     axis -90 45 2.85299e-015   XYZ
    dof rx rz
    limits (-45.0 45.0)
           (-45.0 45.0)
  end
  begin
     id 24 
     name rclavicle
     direction -0.858602 0.463947 -0.218075   
     length 3.35137  
     axis 0 0 0   XYZ 
    dof ry rz
    limits (-10.0 20.0)
           (-20.0 0.0)
  end
  begin
     id 25 
     name rhumerus
     direction -1 -4.48969e-011 -1.98511e-027  
     length 5.42351   
     axis 180 30 90   XYZ
    dof rx ry rz
    limits (-90.0 60.0)
           (-90.0 90.0)
           (-90.0 90.0)
  end
  begin
     id 26 
     name rradius
     direction -1 -4.48961e-011 -2.82624e-027   
     length 3.42066   
     axis 180 30 90   XYZ
    dof rx
    limits (-10.0 170.0)
  end
  begin
     id 27 
     name rwrist
     direction -1 -4.48966e-011 -3.80893e-027   
     length 1.71033   
     axis 1.1049e-015 -90 -90   XYZ
    dof ry
    limits (-180.0 0.0)
  end
  begin
     id 28
     name rhand
     direction -1 -4.48964e-011 -7.61786e-027   
     length 0.743608   
     axis 4.86085e-015 -90 -90   XYZ
    dof rx rz
    limits (-90.0 90.0)
           (-45.0 45.0)
  end
  begin
     id 29
     name rfingers
     direction -1 -4.48961e-011 -1.52357e-026   
     length 0.599516   
     axis 9.7217e-015 -90 -90   XYZ
    dof rx
    limits (0.0 90.0)
  end
  begin
     id 30
     name rthumb
     direction -0.707107 -6.34913e-011 0.707107   
     length 0.860789   
     axis -90 -45 -2.85299e-015   XYZ
    dof rx rz
    limits (-45.0 45.0)
           (-45.0 45.0)
  end
:hierarchy
  begin
    root lhipjoint rhipjoint lowerback
    lhipjoint lfemur
    lfemur ltibia
    ltibia lfoot
    lfoot ltoes
    rhipjoint rfemur
    rfemur rtibia
    rtibia rfoot
    rfoot rtoes
    lowerback upperback
    upperback thorax
    thorax lowerneck lclavicle rclavicle
    lowerneck upperneck
    upperneck head
    lclavicle lhumerus
    lhumerus lradius
    lradius lwrist
    lwrist lhand lthumb
    lhand lfingers
    rclavicle rhumerus
    rhumerus rradius
    rradius rwrist
    rwrist rhand rthumb
    rhand rfingers
  end

#!OML:ASF E:\mmandel\Project 1\Capture day 1\Session 2\Subject.ASF
:FULLY-SPECIFIED
:DEGREES
352
root 18.7371 7.97864 -0.6445 163.17 84.8843 98.9571
lowerback 18.3048 -0.691195 -3.1928
upperback 2.16341 -1.489 -1.1465
thorax -7.87088 -0.570578 0.937927
lowerneck -18.2969 0.974295 2.08804
upperneck 16.988 1.80709 -4.76548
head 8.36301 0.507653 -1.72046
rclavicle -4.01545e-014 -4.56708e-014
rhumerus 15.6862 -0.789731 -68.9973
rradius 61.6904
rwrist -366.061
rhand -34.9756 50.0867
rfingers 7.12502
rthumb -8.12121 20.2628
lclavicle -4.01545e-014 -4.56708e-014
lhumerus 43.2231 -16.1102 46.7794
lradius 36.2423
lwrist 22.1276
lhand -42.9751 -70.4841
lfingers 7.12502
lthumb -15.8343 -41.1117
rfemur -48.1135 -41.1855 19.385
rtibia 100.264
rfoot -24.7485 -10.8653
rtoes -8.82934
lfemur -44.0416 12.8132 -7.14301
ltibia 91.6988
lfoot -20.8504 -5.28873
ltoes 0.85098
353
root 18.6646 8.00851 -0.637601 163.097 84.7286 98.8631
lowerback 18.4778 -0.702202 -3.38421
upperback 2.19121 -1.54124 -1.11402
thorax -7.92688 -0.586536 1.09678
lowerneck -17.8932 0.948706 2.30924
upperneck 15.7444 1.74109 -5.19707
head 7.87977 0.461111 -1.89842
rclavicle 6.12257e-014 3.13334e-014
rhumerus 15.0729 -0.0782345 -68.7317
rradius 62.6825
rwrist -366.401
rhand -35.1601 50.7029
rfingers 7.12502
rthumb -8.29932 20.8859
lclavicle 6.12257e-014 3.13334e-014
lhumerus 44.0103 -15.5999 46.8014
lradius 35.6734
lwrist 21.8569
lhand -43.0563 -69.9531
lfingers 7.12502
lthumb -15.9126 -40.5868
rfemur -48.9033 -41.3749 19.575
rtibia 100.929
rfoot -24.3766 -10.906
rtoes -7.75855
lfemur -44.8442 12.6948 -7.23969
ltibia 92.3969
lfoot -21.1278 -5.23656
ltoes -0.636948
354
root 18.5932 8.03611 -0.633137 163.877 84.5519 99.6812
lowerback 18.6264 -0.791381 -3.39036
upperback 2.25863 -1.65937 -1.14271
thorax -7.93034 -0.641001 1.1003
lowerneck -18.4003 0.884709 1.81685
upperneck 16.0016 1.63682 -4.44248
head 8.03818 0.446431 -1.58081
rclavicle 2.33572e-014 2.99171e-014
rhumerus 14.3495 0.694947 -68.7525
rradius 63.6389
rwrist -366.315
rhand -35.4614 51.6035
rfingers 7.12502
rthumb -8.59006 21.7983
lclavicle 2.33572e-014 2.99171e-014
lhumerus 44.796 -15.0524 46.7506
lradius 35.0633
lwrist 21.6339
lhand -43.0086 -69.3798
lfingers 7.12502
lthumb -15.8667 -40.0099
rfemur -49.4802 -41.5415 19.7036
rtibia 101.552
rfoot -24.3494 -10.6725
rtoes -7.16913
lfemur -45.6005 12.5178 -7.25209
ltibia 93.0928
lfoot -21.6491 -4.64024
ltoes -4.37264
355
root 18.5252 8.06166 -0.629172 167.916 84.5569 103.792
lowerback 18.747 -0.964215 -3.05692
upperback 2.33676 -1.81145 -1.09207
thorax -7.91368 -0.722159 1.0049
lowerneck -18.0926 0.913324 2.02047
upperneck 14.9696 1.61004 -4.62071
head 7.64401 0.43886 -1.66903
rclavicle 5.19822e-014 4.66399e-014
rhumerus 13.6233 1.62719 -69.0293
rradius 64.6377
rwrist -365.84
rhand -35.7026 52.2682
rfingers 7.12502
rthumb -8.82283 22.4726
lclavicle 5.19822e-014 4.66399e-014
lhumerus 45.3694 -14.3388 46.7562
lradius 34.4347
lwrist 21.365
lhand -42.8682 -68.8483
lfingers 7.12502
lthumb -15.7314 -39.4677
rfemur -49.9619 -41.4678 20.2492
rtibia 102.069
rfoot -24.3114 -10.5213
rtoes -6.31581
lfemur -46.3145 12.8123 -6.7777
ltibia 93.7954
lfoot -23.526 -3.8337
ltoes -15.2469
356
root 18.4566 8.08625 -0.622507 170.887 84.7147 106.819
lowerback 19.0145 -0.989692 -3.01973
upperback 2.30768 -1.83593 -0.941432
thorax -8.08626 -0.729334 1.1586
lowerneck -18.0722 0.924752 1.89099
upperneck 14.5622 1.60574 -4.44042
head 7.50316 0.449392 -1.58586
rclavicle -3.8266e-015 -1.82012e-014
rhumerus 12.7318 2.69516 -69.0629
rradius 65.8438
rwrist -365.425
rhand -35.6764 52.3191
rfingers 7.12502
rthumb -8.79751 22.5225
lclavicle -3.8266e-015 -1.82012e-014
lhumerus 45.8316 -13.7432 46.7752
lradius 33.9259
lwrist 21.216
lhand -42.7721 -68.1263
lfingers 7.12502
lthumb -15.6389 -38.7385
rfemur -50.5627 -41.2099 20.8259
rtibia 102.614
rfoot -24.326 -10.5475
rtoes -5.71668
lfemur -46.9097 13.3199 -6.32455
ltibia 94.4581
lfoot -20.0186 -6.39607
ltoes 4.69403
357
root 18.4007 8.11309 -0.612408 172.757 85.0012 108.641
lowerback 19.0748 -0.956297 -3.06666
upperback 2.29546 -1.79995 -0.872645
thorax -8.13001 -0.709224 1.25202
lowerneck -17.9888 0.975393 1.96801
upperneck 14.0614 1.63577 -4.45838
head 7.32597 0.470629 -1.59774
rclavicle -7.45443e-016 2.66993e-014
rhumerus 11.7827 3.68183 -69.303
rradius 67.1002
rwrist -364.74
rhand -35.6485 52.1146
rfingers 7.12502
rthumb -8.7706 22.3169
lclavicle -7.45443e-016 2.66993e-014
lhumerus 46.3183 -13.0686 46.8394
lradius 33.4913
lwrist 20.9184
lhand -42.656 -67.446
lfingers 7.12502
lthumb -15.5271 -38.0494
rfemur -51.2341 -40.8131 21.4188
rtibia 103.068
rfoot -24.6178 -10.7343
rtoes -6.21368
lfemur -47.4089 13.8426 -5.98238
ltibia 94.9797
lfoot -20.8519 -6.24203
ltoes -0.102843
358
root 18.3247 8.13156 -0.610623 174.364 85.0908 110.145
lowerback 19.0686 -1.05823 -3.0052
upperback 2.27533 -1.9208 -0.871509
thorax -8.14567 -0.76838 1.24903
lowerneck -17.5601 1.05629 2.2904
upperneck 13.0756 1.71182 -4.93585
head 6.94177 0.494136 -1.79179
rclavicle -1.55052e-014 -7.8023e-015
rhumerus 10.7951 4.75158 -69.7867
rradius 68.0054
rwrist -363.87
rhand -35.9396 52.2235
rfingers 7.12502
rthumb -9.05156 22.4377
lclavicle -1.55052e-014 -7.8023e-015
lhumerus 46.6076 -12.1136 47.4095
lradius 33.0206
lwrist 20.0844
lhand -42.5199 -66.9908
lfingers 7.12502
lthumb -15.396 -37.5841
rfemur -52.1656 -40.6946 21.9003
rtibia 103.715
rfoot -24.6739 -10.9824
rtoes -6.73188
lfemur -48.2445 14.1187 -5.78299
ltibia 95.6751
lfoot -20.7514 -6.09816
ltoes -0.684185
359
root 18.2692 8.15624 -0.603679 173.527 85.278 109.285
lowerback 19.1643 -1.07286 -3.22943
upperback 2.26867 -1.99058 -0.899196
thorax -8.19534 -0.792861 1.36632
lowerneck -17.8063 1.04958 1.85136
upperneck 13.0973 1.67045 -4.14257
head 6.97688 0.518998 -1.466
rclavicle 5.18828e-014 2.78547e-014
rhumerus 9.70756 5.90724 -70.2727
rradius 68.842
rwrist -363.229
rhand -36.2698 52.1219
rfingers 7.12502
rthumb -9.37013 22.3502
lclavicle 5.18828e-014 2.78547e-014
lhumerus 46.8979 -11.2426 47.8996
lradius 32.5232
lwrist 19.3148
lhand -42.4976 -66.66
lfingers 7.12502
lthumb -15.3745 -37.2516
rfemur -52.903 -40.5159 22.1354
rtibia 104.283
rfoot -24.3687 -11.2078
rtoes -6.19116
lfemur -48.7294 14.4653 -5.76602
ltibia 96.1543
lfoot -20.61 -6.0434
ltoes -0.795011
360
root 18.2078 8.17691 -0.597927 174.771 85.6105 110.552
lowerback 19.202 -1.0623 -3.25167
upperback 2.31289 -1.97958 -0.897334
thorax -8.16709 -0.787119 1.37844
lowerneck -17.9746 1.06169 1.77708
upperneck 13.0214 1.66747 -3.95441
head 6.9778 0.529164 -1.39246
rclavicle 1.47101e-014 -1.59525e-014
rhumerus 8.87322 7.07594 -70.7543
rradius 69.6023
rwrist -362.846
rhand -36.5319 51.3745
rfingers 7.12502
rthumb -9.62303 21.6142
lclavicle 1.47101e-014 -1.59525e-014
lhumerus 47.3299 -10.6038 47.8324
lradius 32.0642
lwrist 19.0718
lhand -42.5663 -66.2975
lfingers 7.12502
lthumb -15.4406 -36.8943
rfemur -53.5686 -40.1478 22.5386
rtibia 104.858
rfoot -24.4897 -10.8175
rtoes -5.6609
lfemur -49.116 14.9926 -5.466
ltibia 96.6779
lfoot -20.7423 -6.26873
ltoes -1.4109
361
root 18.1402 8.19628 -0.595374 176.565 85.8086 112.438
lowerback 19.3696 -1.14326 -3.13617
upperback 2.35647 -2.06578 -0.934214
thorax -8.2126 -0.830117 1.29844
lowerneck -17.8495 1.13701 2.13732
upperneck 12.5274 1.7238 -4.31928
head 6.80478 0.546731 -1.56163
rclavicle 9.34288e-015 -1.66979e-014
rhumerus 7.85967 8.28158 -71.4337
rradius 70.5017
rwrist -362.49
rhand -36.8866 50.5418
rfingers 7.12502
rthumb -9.96528 20.7977
lclavicle 9.34288e-015 -1.66979e-014
lhumerus 47.6398 -9.83755 48.0341
lradius 31.6338
lwrist 18.5484
lhand -42.5173 -65.901
lfingers 7.12502
lthumb -15.3935 -36.4941
rfemur -54.1789 -39.933 22.8761
rtibia 105.453
rfoot -24.4302 -11.2463
rtoes -5.64103
lfemur -49.5065 15.3858 -5.15366
ltibia 97.2179
lfoot -20.7658 -6.65531
ltoes -1.08027
362
root 18.0733 8.21328 -0.592783 175.714 86.0201 111.648
lowerback 19.5613 -1.18026 -3.28074
upperback 2.35179 -2.15134 -0.954305
thorax -8.3137 -0.863002 1.38565
lowerneck -17.5388 1.20185 2.29632
upperneck 11.7409 1.77394 -4.48183
head 6.50363 0.574604 -1.63118
rclavicle 4.27387e-014 3.56322e-014
rhumerus 6.74666 9.61863 -72.0442
rradius 71.4234
rwrist -362.508
rhand -37.1174 49.8429
rfingers 7.12502
rthumb -10.1879 20.1096
lclavicle 4.27387e-014 3.56322e-014
lhumerus 47.6944 -8.77781 49.2417
lradius 31.0884
lwrist 17.1421
lhand -42.3367 -65.6919
lfingers 7.12502
lthumb -15.2195 -36.2717
rfemur -54.8565 -39.7164 23.0444
rtibia 106.082
rfoot -24.2943 -10.9032
rtoes -5.52509
lfemur -49.8613 15.8078 -5.09099
ltibia 97.7155
lfoot -20.6632 -7.00724
ltoes -0.232659
